<svg xmlns="http://www.w3.org/2000/svg" viewBox="0 0 640 240" role="img" aria-hidden="true">
  <defs>
    <linearGradient id="sky" x1="0" y1="0" x2="1" y2="1"><stop offset="0" stop-color="#e9f7ff"/><stop offset="1" stop-color="#70afe0"/></linearGradient>
    <linearGradient id="warm" x1="0" y1="0" x2="1" y2="1"><stop offset="0" stop-color="#fff2dc"/><stop offset="1" stop-color="#d7a674"/></linearGradient>
    <linearGradient id="green" x1="0" y1="0" x2="1" y2="1"><stop offset="0" stop-color="#dff8d5"/><stop offset="1" stop-color="#7dbb70"/></linearGradient>
    <linearGradient id="purple" x1="0" y1="0" x2="1" y2="1"><stop offset="0" stop-color="#dac9ff"/><stop offset="1" stop-color="#5d78d6"/></linearGradient>
    <linearGradient id="peach" x1="0" y1="0" x2="1" y2="1"><stop offset="0" stop-color="#fff0e8"/><stop offset="1" stop-color="#f5b17f"/></linearGradient>
    <filter id="shadow" x="-20%" y="-20%" width="140%" height="160%"><feDropShadow dx="0" dy="8" stdDeviation="8" flood-color="#123" flood-opacity=".16"/></filter>
    <pattern id="dots" width="42" height="42" patternUnits="userSpaceOnUse"><circle cx="6" cy="6" r="2" fill="#fff" opacity=".35"/></pattern>
    
  </defs>
  
  <rect width="640" height="240" fill="url(#purple)"/>
  <rect width="640" height="240" fill="#091127" opacity=".28"/>
  <circle cx="560" cy="42" r="92" fill="#fff" opacity=".12"/>
  <circle cx="66" cy="202" r="84" fill="#fff" opacity=".13"/>
  <g filter="url(#shadow)">
    <rect x="165" y="61" width="246" height="104" rx="10" fill="#12213f"/>
    <rect x="179" y="75" width="218" height="77" rx="4" fill="#1f6fd5"/>
    <path d="M180 139C232 111 276 116 319 151H180Z" fill="#e85193" opacity=".85"/>
    <circle cx="335" cy="105" r="28" fill="#7af0d7" opacity=".75"/>
    <rect x="254" y="165" width="68" height="12" rx="6" fill="#172946"/><rect x="222" y="177" width="132" height="11" rx="6" fill="#172946"/>
    <rect x="68" y="112" width="96" height="64" rx="9" fill="#16284a"/><rect x="78" y="123" width="76" height="42" rx="4" fill="#56cdf4" opacity=".78"/>
    <rect x="438" y="93" width="80" height="100" rx="18" fill="#18294a"/><rect x="450" y="108" width="56" height="70" rx="9" fill="#8a6df0" opacity=".85"/>
  </g>
  <g stroke="#93e8ff" stroke-width="3" stroke-linecap="round" opacity=".55"><path d="M480 48v26M467 61h26M109 54v20M99 64h20M542 155v24M530 167h24"/></g>

</svg>