<svg xmlns="http://www.w3.org/2000/svg" viewBox="0 0 640 240" role="img" aria-hidden="true">
  <defs>
    <linearGradient id="sky" x1="0" y1="0" x2="1" y2="1"><stop offset="0" stop-color="#e9f7ff"/><stop offset="1" stop-color="#70afe0"/></linearGradient>
    <linearGradient id="warm" x1="0" y1="0" x2="1" y2="1"><stop offset="0" stop-color="#fff2dc"/><stop offset="1" stop-color="#d7a674"/></linearGradient>
    <linearGradient id="green" x1="0" y1="0" x2="1" y2="1"><stop offset="0" stop-color="#dff8d5"/><stop offset="1" stop-color="#7dbb70"/></linearGradient>
    <linearGradient id="purple" x1="0" y1="0" x2="1" y2="1"><stop offset="0" stop-color="#dac9ff"/><stop offset="1" stop-color="#5d78d6"/></linearGradient>
    <linearGradient id="peach" x1="0" y1="0" x2="1" y2="1"><stop offset="0" stop-color="#fff0e8"/><stop offset="1" stop-color="#f5b17f"/></linearGradient>
    <filter id="shadow" x="-20%" y="-20%" width="140%" height="160%"><feDropShadow dx="0" dy="8" stdDeviation="8" flood-color="#123" flood-opacity=".16"/></filter>
    <pattern id="dots" width="42" height="42" patternUnits="userSpaceOnUse"><circle cx="6" cy="6" r="2" fill="#fff" opacity=".35"/></pattern>
    
  </defs>
  
  <rect width="640" height="240" fill="url(#purple)"/><rect width="640" height="240" fill="#0a1025" opacity=".3"/>
  <g filter="url(#shadow)"><rect x="190" y="52" width="245" height="120" rx="12" fill="#131e38"/><rect x="207" y="69" width="211" height="80" rx="6" fill="#3a7fe8"/><circle cx="330" cy="109" r="34" fill="#f15fa7" opacity=".85"/><rect x="272" y="172" width="88" height="14" rx="7" fill="#18294a"/></g>
  <path d="M84 155c55-32 114-27 172 15" fill="none" stroke="#8eeaf9" stroke-width="5" opacity=".5"/><circle cx="523" cy="76" r="42" fill="#fff" opacity=".12"/>

</svg>